<svg width="64" height="64" viewBox="0 0 64 64" fill="none" xmlns="http://www.w3.org/2000/svg">
<g clip-path="url(#clip0_13_446)">
<rect width="64" height="64" fill="white"/>
<path fill-rule="evenodd" clip-rule="evenodd" d="M0 64H64V0H0V64Z" fill="#D93317"/>
<path fill-rule="evenodd" clip-rule="evenodd" d="M32.5223 36.4314C31.3627 39.5456 29.2007 42.2669 26.8315 43.7171C25.17 44.7347 23.4459 45.0611 21.9777 44.6387C20.658 44.2573 19.6827 43.4381 19.0798 42.2029C17.9995 39.9911 18.2529 36.5799 19.7159 32.8512C21.8766 27.3383 26.3643 23.7031 29.9291 24.5735C31.1707 24.8768 32.1691 25.6807 32.8142 26.9018C34.0289 29.1968 33.9252 32.6682 32.5223 36.4314ZM28.9692 35.6058C29.974 32.9267 30.1839 30.496 29.5171 29.257C29.2777 28.8166 28.9436 28.544 28.5199 28.4493C26.8931 28.0768 24.6044 30.4499 23.3129 33.8509C22.3299 36.439 22.1084 38.7162 22.7215 39.9539C22.9507 40.4198 23.2899 40.7194 23.7302 40.8512C25.3558 41.3312 27.7046 38.9798 28.9692 35.6058V35.6058Z" fill="white"/>
<path fill-rule="evenodd" clip-rule="evenodd" d="M30.029 17.6026C30.4182 17.0176 30.9225 16.6528 31.8825 16.7079C32.8438 16.7629 34.23 17.7024 34.5628 17.9533C35.254 18.4704 37.1906 19.9488 38.6294 23.3331C40.4534 27.6147 41.4006 34.0416 37.2316 41.6026C34.3862 46.761 30.486 49.8189 26.902 51.0311C24.0412 52.0039 21.3391 51.9731 19.4242 51.7031C17.7769 51.4688 16.6825 51.0285 16.1308 50.7815C15.4025 50.4551 14.7817 50.0736 14.3375 49.7063C13.0204 48.6003 12.9961 47.5661 13.4172 46.7584C13.855 45.9239 14.6409 45.6269 15.3833 45.728C15.8198 45.7882 16.1743 45.9354 16.6146 46.2221C17.0754 46.528 17.6578 46.9069 18.2684 47.1335C20.1078 47.8131 22.358 48.1357 25.3417 47.2167C28.3241 46.2951 31.5561 43.4944 33.7449 39.4522C35.1439 36.8679 35.7174 34.3783 35.9618 32.2061C36.4534 27.817 35.0479 24.6439 33.6988 22.8416C32.5225 21.2723 31.0543 20.6656 30.5807 20.2842C29.3519 19.3011 29.727 18.0583 30.029 17.6026" fill="white"/>
<path fill-rule="evenodd" clip-rule="evenodd" d="M13.8848 53.6141C14.407 53.8983 15.2006 54.2848 16.2528 54.5715C17.8669 55.0119 20.071 55.2218 22.5017 55.049C27.879 54.6637 34.7206 51.5943 39.2723 43.1987C43.888 34.6893 43.2275 26.4128 40.0608 20.0359C38.4915 16.8781 35.9353 14.6432 33.6339 13.3069C32.4153 12.6003 31.5283 12.2944 30.3725 11.9207C29.2115 11.5456 28.6278 10.6074 29.04 9.33507C29.3075 8.51331 30.0486 7.97315 31.1264 7.99363C31.5616 8.00131 32.3513 8.15875 33.1667 8.46467C34.3238 8.90115 35.2864 9.43747 36.1721 9.97251C39.4963 11.9731 42.5069 15.2563 44.4525 19.5968C47.5872 26.5869 47.984 35.9143 43.0265 44.9421C34.0665 61.2519 18.6809 60.6682 12.9056 57.8509C11.7561 57.2647 10.9702 56.7245 10.5248 56.2151C9.63135 55.1949 9.92063 54.3271 10.2598 53.7459C10.5683 53.2237 11.0611 52.9037 11.6589 52.8474C11.9353 52.8243 12.2169 52.8474 12.5126 52.9306C12.7622 53.001 13.0246 53.1187 13.2461 53.2544C13.3472 53.3159 13.5673 53.44 13.8848 53.6141" fill="white"/>
<path fill-rule="evenodd" clip-rule="evenodd" d="M44.3563 47.3331C44.3934 47.1667 44.4587 46.9542 44.565 46.7289C44.643 46.56 44.7262 46.3872 44.8504 46.1747C45.1141 45.719 45.3803 45.2224 45.5582 44.8678C47.6037 40.8205 49.955 33.9161 49.1115 26.8736C48.2245 19.4522 45.6018 13.6794 40.9438 9.78047C40.3883 9.31583 39.8366 8.90111 39.1877 8.46463C38.9125 8.28031 38.595 8.06143 38.3723 7.79775C37.8437 7.17951 37.6248 6.35647 38.1778 5.42463C38.965 4.09983 40.3256 4.22143 42.1022 5.47711C42.8459 6.00319 44.7595 7.41375 46.8088 9.91999C49.4456 13.143 52.3064 18.2886 53.196 26.2285C53.699 30.7238 53.1499 34.8659 52.2693 38.3872C51.3886 41.911 50.3006 44.6157 49.3381 46.5472C49.045 47.1334 48.7326 47.6557 48.4638 48.0934C48.2155 48.4992 47.8264 49.0355 47.3848 49.2979C46.6219 49.751 45.7182 49.6691 45.0808 49.2531C44.6008 48.9408 44.1285 48.3789 44.3563 47.3331" fill="white"/>
</g>
<defs>
<clipPath id="clip0_13_446">
<rect width="64" height="64" fill="white"/>
</clipPath>
</defs>
</svg>
