<?xml version="1.0" encoding="UTF-8"?>
<svg width="12px" height="17px" viewBox="0 0 12 17" version="1.1" xmlns="http://www.w3.org/2000/svg" xmlns:xlink="http://www.w3.org/1999/xlink">
    <!-- Generator: Sketch 59 (86127) - https://sketch.com -->
    <title>assets/docs</title>
    <desc>Created with Sketch.</desc>
    <g id="assets/docs" stroke="none" stroke-width="1" fill="none" fill-rule="evenodd">
        <path d="M9.84136881,3.99877588 L7.82327331,3.99877588 L7.82327331,1.93899827 L9.84136881,3.99877588 Z M11.7333333,13.6007345 L11.7333333,4.79037029 L11.7254501,4.79037029 L7.03968467,0.0130572274 L7.03968467,1.13686838e-13 L0,1.13686838e-13 L0,13.6007345 C0.431998567,13.6007345 0.782012004,13.2432929 0.782012004,12.8009793 L0.782012004,0.799755177 L7.03968467,0.799755177 L7.03968467,4.80016322 L10.9513213,4.80016322 L10.9513213,13.6007345 C10.9513213,14.4837295 10.2512945,15.2002448 9.38729732,15.2002448 L0.782012004,15.2002448 C0.350013437,15.2002448 0,15.5593186 0,16 L9.38729732,16 C10.683293,16 11.7333333,14.926043 11.7333333,13.6007345 M2.35076592,10.3772315 L9.38572068,10.3772315 L9.38572068,9.57747628 L2.35076592,9.57747628 L2.35076592,10.3772315 Z M6.25767267,11.1769866 L2.35076592,11.1769866 L2.35076592,11.9767418 L6.25767267,11.9767418 L6.25767267,11.1769866 Z M2.35076592,8.77772111 L9.38572068,8.77772111 L9.38572068,7.97796593 L2.35076592,7.97796593 L2.35076592,8.77772111 Z M2.35076592,7.17821075 L9.38572068,7.17821075 L9.38572068,6.37845557 L2.35076592,6.37845557 L2.35076592,7.17821075 Z" id="Shape" fill="#333333" fill-rule="nonzero"></path>
    </g>
</svg>