<svg width="231" height="87" xmlns="http://www.w3.org/2000/svg"><g fill="none" fill-rule="evenodd"><path fill="#FFF" fill-rule="nonzero" d="M.13.13h41.6v15.13H.13z"/><path d="M.17 22.82h3.48c2.51 0 4.05 1.28 4.05 3.4a3.09 3.09 0 01-1.82 2.94l3.58 5.05H6.69l-3-4.61H2.48v4.61H.17V22.82zm2.31 2v2.84h1.3a1.43 1.43 0 100-2.84h-1.3zM10.89 22.82h6.64v2H13.2v2.63h3.68v2H13.2v2.85h4.33v2h-6.64V22.82zm2.25-1L15 19.64h2.37l-2.11 2.2-2.12-.02zM20.22 22.82H24c2.5 0 4 1.28 4 3.4s-1.53 3.38-4 3.38h-1.47v4.61h-2.31V22.82zm2.31 2v2.84h1.54a1.43 1.43 0 100-2.84h-1.54zM36.64 22.82H39v6.93c0 3-1.76 4.78-4.62 4.78-2.86 0-4.61-1.79-4.61-4.78v-6.93H32V30a2.31 2.31 0 104.61 0l.03-7.18zM41.81 22.82h3.24c2.38 0 3.81 1.17 3.81 3.09a2.65 2.65 0 01-1.2 2.24 2.92 2.92 0 011.87 2.71c0 2.08-1.61 3.35-4.23 3.35h-3.49V22.82zm2.32 2v2.49h1c.88 0 1.39-.44 1.39-1.26 0-.82-.52-1.26-1.42-1.26l-.97.03zm0 4.47v3h1.3c1.07 0 1.72-.57 1.72-1.51 0-.94-.65-1.47-1.72-1.47l-1.3-.02zM51.89 22.82h2.31v9.29h4.33v2.1h-6.64zM60.56 22.82h2.31v11.39h-2.31zM78 35c.275 0 .549-.043.81-.13v1.95a2.93 2.93 0 01-1.2.21 5.39 5.39 0 01-3.57-1.5l-1.35-1.2a6 6 0 01-1.56.19 6 6 0 116-6 6 6 0 01-2.25 4.76l.69.65A3.57 3.57 0 0078 35zm-3.21-6.5a3.67 3.67 0 10-3.66 3.86 3.66 3.66 0 003.67-3.85l-.01-.01zM86.11 22.82h2.32v6.93c0 3-1.76 4.78-4.63 4.78s-4.6-1.79-4.6-4.78v-6.93h2.31V30a2.3 2.3 0 104.6 0v-7.18zM91.29 22.82h6.64v2H93.6v2.63h3.68v2H93.6v2.85h4.33v2h-6.64zM.17 39.24h6.64v2H2.48v2.64h3.68v2H2.48v4.82H.17zM8.84 39.24h3.48c2.51 0 4.06 1.29 4.06 3.41a3.09 3.09 0 01-1.83 2.94l3.58 5h-2.76l-3-4.61h-1.22v4.61H8.84V39.24zm2.31 2v2.85h1.3a1.43 1.43 0 100-2.85h-1.3zM22.94 39.24h3l4.32 11.4h-2.44l-1.09-3h-4.56l-1.09 3h-2.46l4.32-11.4zM26 45.7l-1.56-4.28-1.55 4.28H26zM32 39.24h3l5.09 8.16v-8.16h2.31v11.4h-3l-5.1-8.19v8.19H32zM53.65 47.23l1.82 1.4a5.69 5.69 0 01-3.91 2.27l-1.41 2.36H48.1l1.43-2.4a6 6 0 115.94-9.63l-1.82 1.42a3.58 3.58 0 00-3-1.57 3.86 3.86 0 000 7.72 3.58 3.58 0 003-1.57zM60.27 39.24h3l4.31 11.4h-2.43l-1.09-3h-4.55l-1.1 3H56l4.27-11.4zm3.08 6.46l-1.57-4.28-1.56 4.28h3.13zM69.37 39.24h2.31v11.4h-2.31zM75.52 47.51a3.27 3.27 0 002.48 1.4 1.29 1.29 0 001.47-1.32c0-2-5.21-1.58-5.21-5.37a3.4 3.4 0 013.64-3.3 5 5 0 014 1.92l-1.69 1.51A3 3 0 0078 40.94a1.21 1.21 0 00-1.32 1.18c0 2 5.21 1.57 5.21 5.42A3.49 3.49 0 0178.07 51a5.15 5.15 0 01-4.23-1.9l1.68-1.59zM84.28 39.24h6.64v2h-4.33v2.64h3.67v2h-3.67v2.85h4.33v2h-6.64zM37.24 82.09c.31 0 .57.24.43.83l-1.44.33c.25-.66.67-1.16 1-1.16m.77 2.32h-.28a1.76 1.76 0 01-1.13.76c-.39 0-.59-.24-.59-.76 0-.215.02-.43.06-.64l2.35-.77c.45-1.07-.1-1.54-.73-1.54-1.09 0-2.34 1.83-2.34 3.44 0 .72.34 1.11.88 1.11s1.28-.61 1.81-1.61m-.46-3.36l1.63-1.52v-.18h-.88l-1 1.7h.25zm-5 1.07h.76l-1.22 3.33a.4.4 0 00.34.57 2.84 2.84 0 002.2-1.62h-.21a3.12 3.12 0 01-1.41.85l1.11-3.13h1.16l.14-.48h-1.11l.43-1.2h-.45l-.79 1.2-.94.14-.01.34zm-1-.16a.35.35 0 00-.28-.49 2.15 2.15 0 00-1.77 1.45h.21a1.73 1.73 0 01.93-.71l-1.28 3.32a.34.34 0 00.28.49 2.1 2.1 0 001.69-1.45h-.21a1.73 1.73 0 01-.93.71l1.36-3.32zm.23-1.67a.56.56 0 00.56-.55.56.56 0 00-.56-.55.55.55 0 000 1.1m-7.35 5.11c-.17.38 0 .62.37.62a.37.37 0 00.42-.3l.88-2.35a3.23 3.23 0 011.59-1c.24 0 .21.21 0 .51l-1.36 2.61a.39.39 0 00.33.57 2.14 2.14 0 001.78-1.45h-.21a1.73 1.73 0 01-.93.71l1.17-2.36a1.9 1.9 0 00.22-.81.57.57 0 00-.61-.64c-.58 0-1.17.66-1.86 1.46v-.62c0-.44-.14-.84-.54-.84s-.49.22-.72.53v.08c.43 0 .63.63.32 1.32l-.85 1.96zm0-2.91c.16-.54.07-1-.34-1-.41 0-.62.38-1.12 1.46v-.62c0-.44-.14-.84-.55-.84-.41 0-.89.73-1.22 1.45h.22c.23-.33.44-.52.6-.52.16 0 .31.31 0 1l-.9 2c-.17.38 0 .62.38.62s.32-.06.41-.3l.89-2.35c.25-.31.48-.58.76-.88l.87-.02zm-5.13-.4c.31 0 .58.24.43.83l-1.43.33c.25-.66.67-1.16 1-1.16m.79 2.32h-.28a1.74 1.74 0 01-1.13.76c-.39 0-.59-.24-.59-.76a2.67 2.67 0 01.07-.64l2.26-.76c.45-1.07-.09-1.54-.73-1.54-1.09 0-2.34 1.83-2.34 3.44 0 .72.35 1.11.88 1.11s1.28-.61 1.81-1.61m-5.45-2.29h.77l-1.22 3.33a.39.39 0 00.33.57 2.84 2.84 0 002.21-1.61h-.22a3.06 3.06 0 01-1.41.85l1.12-3.13h1.14l.14-.48h-1.11l.43-1.2h-.44l-.8 1.2-.94.14v.33zm-4.22 2.6c0-1 1.15-2.43 1.79-2.43a1.6 1.6 0 01.39 0l-.67 1.78c-.38.47-1 1-1.25 1s-.26-.14-.26-.44m3.52-3.44h-.35l-.4.38h-.08c-1.9 0-3.55 2.14-3.55 3.69a.64.64 0 00.69.69c.49 0 1-.7 1.52-1.46v.27c-.07.77.17 1.19.57 1.19.4 0 .89-.73 1.22-1.45h-.22c-.22.33-.43.52-.6.52-.17 0-.3-.32 0-1l1.2-2.83zm-4.06 1.21c.16-.54.07-1-.34-1-.41 0-.62.38-1.12 1.46v-.62c0-.44-.14-.84-.55-.84-.41 0-.89.73-1.22 1.45h.22c.23-.33.44-.52.6-.52.16 0 .31.31 0 1l-.9 2c-.17.38 0 .62.38.62.22 0 .32-.06.41-.3l.89-2.35c.25-.31.48-.58.76-.88l.87-.02zm-6.4 3.36l.08-.26c-1.11-.21-1.25-.21-.81-1.42l.46-1.24H4.4c.55 0 .56.22.48.82h.32l.73-2h-.32c-.27.48-.49.83-1.09.83H3.31L4 80.81c.2-.56.32-.68 1.07-.68h.54c.77 0 .86.21.86 1h.31L7 79.75H2.38L2.3 80c.89.19 1 .27.56 1.42l-1 2.74c-.42 1.15-.6 1.24-1.63 1.42l-.07.26 3.29-.09zM26.05 71.65c.31 0 .58.24.44.83l-1.44.33c.25-.67.67-1.16 1-1.16m.8 2.32h-.29a1.74 1.74 0 01-1.13.76c-.39 0-.59-.24-.59-.76a3.3 3.3 0 01.07-.64l2.31-.76c.45-1.07-.09-1.54-.72-1.54-1.1 0-2.34 1.83-2.34 3.44 0 .71.34 1.11.87 1.11S26.31 75 26.85 74m-.46-3.36L28 69.09v-.18h-.88l-1 1.7.27.03zm-5 1.07h.77L20.94 75a.39.39 0 00.33.57A2.84 2.84 0 0023.48 74h-.22a3.06 3.06 0 01-1.41.85L23 71.68h1.14l.15-.48h-1.14l.42-1.2h-.44l-.79 1.2-1 .13.05.38zm-1-.16a.35.35 0 00-.28-.49 2.15 2.15 0 00-1.78 1.45h.22a1.69 1.69 0 01.93-.71l-1.28 3.32a.33.33 0 00.27.49 2.11 2.11 0 001.7-1.45h-.22a1.69 1.69 0 01-.93.71l1.37-3.32zm.23-1.67a.55.55 0 00.55-.55.56.56 0 00-.55-.56.56.56 0 00-.392.952.54.54 0 00.392.158m-4.44 5l2.33-6.1-.08-.1-1.46.17V69l.28.21c.26.2.18.4 0 1L15.34 75a.39.39 0 00.34.57 2 2 0 001.69-1.45h-.21a1.91 1.91 0 01-1 .71m-4.43-.57c0-1 1.14-2.42 1.79-2.42a1.6 1.6 0 01.39.05l-.67 1.78c-.38.47-1 1-1.25 1s-.26-.14-.26-.45m3.52-3.43h-.35l-.4.38h-.08c-1.91 0-3.55 2.14-3.55 3.69a.63.63 0 00.68.69c.5 0 1-.7 1.52-1.46v.27c-.07.77.17 1.19.57 1.19.4 0 .89-.73 1.22-1.45h-.22c-.23.33-.43.52-.6.52-.17 0-.3-.32 0-1l1.21-2.83zm-8.51 5.55c0-.45.43-.72 1-1 .292.134.593.247.9.34.64.21.88.29.88.48 0 .41-.7.72-1.64.72-.79 0-1.18-.16-1.18-.58m1.73-2.7c-.27 0-.38-.23-.38-.5 0-.74.4-1.84 1-1.84.27 0 .38.23.38.5 0 .75-.4 1.84-1 1.84m1.84 2.4c0-.54-.47-.73-1.25-1s-1-.26-1-.48a.7.7 0 01.43-.53 2 2 0 001.8-1.87 1.08 1.08 0 00-.09-.46h.93l.14-.48H9.79A1.12 1.12 0 009.2 71a2 2 0 00-1.92 1.85A1.08 1.08 0 008.17 74c-.54.24-.84.53-.84.86a.51.51 0 00.22.45c-1.25.37-1.74.79-1.74 1.38 0 .59.76.82 1.66.82 1.53 0 2.8-.83 2.8-1.52M4.44 72.4c.55 0 .56.23.47.83h.32l.73-2h-.31c-.28.47-.5.82-1.1.82H3.34L4 70.37c.2-.56.32-.67 1.07-.67h.54c.77 0 .86.21.86 1h.31L7 69.31H2.38l-.08.26c.89.19 1 .27.56 1.42l-1 2.74c-.42 1.15-.6 1.24-1.63 1.42l-.07.26h5.13L6.21 74h-.35a3.38 3.38 0 01-2.35 1c-1.36 0-1.24 0-.79-1.3l.49-1.33 1.23.03zm.66-3.5l1.63-1.12v-.17h-1l-.9 1.29h.27zM25.51 61.21c.31 0 .58.23.43.83l-1.43.33c.25-.67.67-1.16 1-1.16m.79 2.31H26a1.7 1.7 0 01-1.13.76c-.39 0-.59-.23-.59-.76a2.65 2.65 0 01.07-.63l2.31-.76c.45-1.07-.09-1.54-.73-1.54-1.09 0-2.34 1.83-2.34 3.44 0 .71.35 1.11.88 1.11s1.28-.61 1.81-1.62m-.46-3.35l1.63-1.52v-.18h-.85l-1 1.7h.22zm-4.78 1.07h.61l-1.22 3.33a.39.39 0 00.33.57A2.86 2.86 0 0023 63.52h-.22a3.06 3.06 0 01-1.41.85l1.12-3.13h1.14l.14-.48h-1.12l.43-1.2h-.44l-.8 1.2-.78.13-.02.35zm-.6.37c.16-.54.07-1-.35-1S19.5 61 19 62.05v-.62c0-.44-.14-.84-.54-.84s-.89.73-1.22 1.45h.22c.22-.33.43-.52.6-.52.17 0 .31.31 0 1l-.9 2c-.17.37 0 .62.37.62a.37.37 0 00.42-.3l.89-2.35c.25-.31.47-.58.76-.88h.84zm-5.13-.4c.31 0 .57.23.43.83l-1.43.33c.25-.67.66-1.16 1-1.16m.79 2.31h-.28a1.73 1.73 0 01-1.13.76c-.39 0-.59-.23-.59-.76 0-.211.02-.422.06-.63l2.32-.76c.45-1.07-.09-1.54-.73-1.54-1.09 0-2.34 1.83-2.34 3.44 0 .71.34 1.11.88 1.11s1.28-.61 1.81-1.62m-5.67.94c-.23 0-.55-.21-.55-.39a5.2 5.2 0 01.22-.65l.38-1c.4-.48 1-1 1.35-1 .35 0 .37.14.37.45 0 .91-.85 2.57-1.77 2.57m2.63-2.94c0-.68-.25-.93-.72-.93s-1.13.62-1.68 1.37l1.39-3.66-.05-.08-1.47.17v.18l.29.21c.26.2.17.41-.06 1l-1.5 3.88a4.44 4.44 0 00-.25.71c0 .4.55.78 1 .78 1.14 0 3-2 3-3.62m-4.54-.44a.35.35 0 00-.28-.49A2.15 2.15 0 006.48 62h.22a1.69 1.69 0 01.93-.71l-1.28 3.32a.34.34 0 00.27.49 2.11 2.11 0 001.7-1.45H8.1a1.67 1.67 0 01-.92.71l1.29-3.29zm.23-1.67a.56.56 0 10-.55-.55c0 .304.246.55.55.55m-3.36-.54H2.36l-.08.26c.9.18 1 .27.56 1.42l-1 2.74c-.42 1.14-.6 1.24-1.63 1.42l-.07.26h4.63l1-1.79h-.35a3.21 3.21 0 01-2.26 1.41c-.78 0-.87-.13-.46-1.3l1-2.74c.41-1.14.59-1.24 1.62-1.42l.02-.26z" fill="#000" fill-rule="nonzero"/><path d="M17.32 13.47c.17-.16.33-.34.49-.51a8.7 8.7 0 01.95-1c.11-.1.22-.18.31-.25s0-.09.06-.12c-.14.06-.23.17-.37.23-.14.06-.06 0 0-.06l.31-.23v-.06a1.17 1.17 0 00-.92.43h-.14c-.43.14-.74.51-1.17.68v-.05c-.17.05-.34.16-.52.2a3.43 3.43 0 01-.71 0 9.43 9.43 0 00-1 .18 2.44 2.44 0 00-.53.21v.05a.65.65 0 01-.2.17 2.8 2.8 0 00-.47.38h-.05c-.15.15-.3.3-.46.44a.12.12 0 01-.09 0l.08-.12.08-.13.12-.18a2.86 2.86 0 01.48-.36s-.05 0 0 0a.56.56 0 00.05-.08.71.71 0 00-.14.1c-.07.06-.12.19-.22.18h-.07V13.45v-.05a.55.55 0 01.2-.17l.33-.19a1.91 1.91 0 00-.45.23h-.05-.07c-.07 0 0 0 0 0s.12-.09.17-.15c.05-.06.06 0 .06 0 .92-.71 2.17-.54 3.23-.91l.26-.17c.14-.06.26-.2.43-.29a1.19 1.19 0 00.48-.66.08.08 0 000-.05 4.51 4.51 0 01-1.26.94 5.35 5.35 0 01-2.02.02c0-.05.09-.05.14-.05.05 0 .06-.12.12-.18h.08s0-.05.06-.05h.12c-.02 0-.26.08-.4 0 .05-.06 0-.14.08-.17h.12a.22.22 0 01.05-.12c.43-.25.83-.45 1.23-.68-.08 0-.14.08-.23 0s0-.08.06-.08c.31-.09.57-.26.89-.37-.12 0-.2.08-.32 0 .06 0 .09-.09.17-.09v-.08h.06a.1.1 0 01-.06 0c0-.06.12 0 .18-.09s-.09 0-.09 0a.61.61 0 01.37-.17c0-.05-.11 0-.11-.05-.06 0 0-.09 0-.12.126-.21.214-.44.26-.68h-.06a2.39 2.39 0 01-1.17.54h-.15a.54.54 0 01-.48 0c-.12-.05-.17-.14-.29-.23a3.85 3.85 0 00-.71-.34 6.37 6.37 0 00-2.2-.31 4.79 4.79 0 011-.29 4.24 4.24 0 011.45-.28.88.88 0 00-.28 0 4.5 4.5 0 00-1.23.17c-.29.05-.54.17-.83.23-.29.06-.26.22-.46.2v-.09a1.68 1.68 0 011.09-.72 5.47 5.47 0 011.51.06 8 8 0 011.09.2c.14 0 .17.23.29.26.12.03.34 0 .51.11v-.17c0-.06.26 0 .37 0 .11 0-.2-.4-.31-.6.198.221.427.413.68.57.15.06.49.14.43 0a4.38 4.38 0 00-.66-.86v-.11c-.05 0-.05 0-.08-.06v-.11c-.12-.06-.09-.18-.15-.26-.06-.08 0-.34-.08-.52a2.81 2.81 0 01-.12-.48c-.08-.49-.2-.92-.25-1.37-.05-.45.31-1 .57-1.46a2.51 2.51 0 01.8-.92A2.5 2.5 0 0118.1 1c.25-.256.554-.45.89-.57a6.66 6.66 0 01.75-.29H.13v15.11H14a13.14 13.14 0 011.85-.95 6.66 6.66 0 001.47-.83zm-4.39-2h-.14c.03 0 .22-.14.34-.2.12-.06.14-.08.2-.05s.14.05.2.11c-.17.09-.4.01-.6.09v.05zm-4.37-.63v-.05a9.51 9.51 0 00.91-1.46 3.91 3.91 0 001-.8A5.6 5.6 0 0112 7.22c.242-.09.508-.09.75 0-.09.11-.23.08-.35.17a.1.1 0 01-.08 0 .1.1 0 000-.08c-.29.31-.69.45-.92.83-.23.38-.28.65-.66.74-.11 0 0-.09 0-.06a9.39 9.39 0 00-2.18 1.97v.05zm2.37-1.88c0 .05-.06.06-.09.11a.26.26 0 01-.11.12h-.06a.34.34 0 01.23-.26s.03-.05.03-.02v.05zm1.33 4.28l-.07.08s.06 0 0 .05a.62.62 0 01-.21.15H12a.94.94 0 01-.1.1h-.15l.21-.2a1.31 1.31 0 00.12-.11l.06-.07s.14-.11.12-.05v.05zm-.52-.24l-.33.22c-.12.07-.25.12-.38.18a1.58 1.58 0 00-.29.22l-.06.07h-.16l-.1.08-.17.18v-.05l.09-.11v-.06a1.25 1.25 0 01.09-.12v-.11-.1l.11-.15a.87.87 0 00-.11.09s-.09 0 0-.05 0 0 .07-.05a.92.92 0 01.14-.14l.09-.07s0-.05.06-.08c.28-.26.74-.25 1.1-.42.14-.06.31 0 .45 0a.4.4 0 01.26.06c-.39.06-.6.22-.86.41zm.59-2s.08 0 .11-.06h-.23v-.06l-.46.12c-.2.05-.37.2-.6.25-.23.05-.57.37-.92.49v-.06c0-.06.15-.11.2-.2.05-.09 0-.06 0-.06a4.93 4.93 0 01.83-.74v-.09c.08-.11.22-.17.28-.31a.5.5 0 01.29-.26s-.09 0-.09-.08-.23.05-.34 0a.4.4 0 01.18-.1h-.07c0-.06.06-.13.15-.15a.8.8 0 00.34-.11c-.2 0-.43.06-.63-.06a1.56 1.56 0 01.71-.86h.09a.28.28 0 01-.23.29c.235.033.466.09.69.17 0 .06-.09 0-.12 0 .15.08.32 0 .46.14-.09.09-.17 0-.26 0a7.63 7.63 0 012.58 1 8 8 0 01-2 .6.63.63 0 01-.23 0v.09a.46.46 0 00-.29.06c-.18-.01-.36.04-.44-.01z" fill="#000091" fill-rule="nonzero"/><path d="M41.73.13H25.45a.51.51 0 01.16.07l.41.22c.218.098.404.254.54.45.06.09.15.26.09.38s-.09.37-.23.42a1 1 0 01-.6.06 1.35 1.35 0 01-.34-.06 2.35 2.35 0 011.11.78c0 .05.15.08.26.08.11 0 0 .06 0 .09s-.12.08-.09.17h.09c.14-.06.11-.34.31-.26a.33.33 0 01.12.43 3 3 0 01-.35.29.34.34 0 000 .2.85.85 0 01.15.34c.08.2.11.43.2.63.135.417.202.852.2 1.29 0 .22-.12.42 0 .65.077.213.181.414.31.6.117.146.224.3.32.46.17.29.48.57.34.92-.09.2-.4.17-.6.28-.2.11 0 .37.06.52.06.15-.17.42-.37.51.05.09.17.06.2.11s.17.23.08.38c-.09.15-.46.25-.28.51.09.2.09.43 0 .63a.72.72 0 01-.52.43 1.1 1.1 0 01-.54 0 .39.39 0 00-.17-.06 12.19 12.19 0 00-1.46-.2 2.11 2.11 0 00-.4.11 3.52 3.52 0 00-.35.31L24 12a2.31 2.31 0 00-.45.85 1.7 1.7 0 000 1.35s.94.32 1.57.6c.234.099.46.213.68.34h16L41.73.13z" fill="#E1000F" fill-rule="nonzero"/><path d="M26.42 5.65c.12 0 .29 0 .29.08-.06.23-.4.29-.57.52h-.09c-.09.05-.06.2-.14.2a.46.46 0 00-.26 0 .5.5 0 00.43.18.11.11 0 01.08.11.09.09 0 00.06 0h.06v.11c-.09.12-.23.06-.34.09.213.06.437.06.65 0 .17-.06 0-.34.12-.49-.06 0 0-.08-.06-.08s.11-.14.17-.17a.2.2 0 00.17-.09c0-.06-.11-.08-.08-.14.03-.06.31-.29.26-.46-.05-.17-.26-.08-.41-.14a.89.89 0 00-.48 0 2.26 2.26 0 00-.43.11 1.88 1.88 0 00-.54.29 3.06 3.06 0 01.63-.17 1.55 1.55 0 01.48.05z" fill="#9E9D9C" fill-rule="nonzero"/><path fill="#4C5459" fill-rule="nonzero" d="M128.31 22.82h8.15v37.5h-8.15zM128.31 14.67h8.15v4.89h-8.15zM222.06 22.82h8.15v37.5h-8.15zM222.06 14.67h8.15v4.89h-8.15zM214.72 27.88a11.41 11.41 0 00-8.55-4.88c-3.29-.3-22.64-.2-22.64-.2s.71 7.51 6.93 7.51c1.58 0 4.57.16 7 .16 1.62 0 5.15-.2 6.43 0a5.44 5.44 0 013.8 2.15c1.25 1.78 1.5 4.44 1.5 7.72 0 3.28-.05 6.46-2.18 8.45-3.31 3.09-18 1.95-20.49.71-2.28-1.1-3.41-2.52-3.51-5.62 0-3.73-.11-7.39-.11-7.39 0-2.46.42-6.37-2.47-9.46-4.57-4.93-14.68-4.69-17.85-4.21a23.14 23.14 0 00-11.47 5.38v-5.38H143v37.5h8.15V38.58a4.9 4.9 0 011.38-3.76c6.1-6.63 18.7-5.58 21.25-1.69 1.17 1.75 1 5.33 1 8.15v32.08h8.15V54.29a6.83 6.83 0 004 3.22c3.58.7 13.22.81 16.88.49 3.84-.31 7.87-1.36 10.83-5.55 1.59-2.24 2.53-6.64 2.51-12.08 0-6.23-.66-9.51-2.45-12.49"/><path fill="#00798C" fill-rule="nonzero" d="M128.31 66.84h38.31v6.52h-38.31z"/><path stroke="#000" stroke-width=".5" d="M113.06.13v85.89"/></g></svg>