<svg width="17" height="17" xmlns="http://www.w3.org/2000/svg"><path d="M16.065.935A3.07 3.07 0 0013.813 0H3.187A3.07 3.07 0 00.935.935 3.07 3.07 0 000 3.187v10.625c0 .878.312 1.63.935 2.253A3.07 3.07 0 003.187 17h10.625a3.07 3.07 0 002.252-.935A3.07 3.07 0 0017 13.812V3.187a3.07 3.07 0 00-.935-2.252zM5.18 14.233H2.623V6.552H5.18v7.68zM4.947 5.13c-.265.254-.616.382-1.051.382h-.011c-.42 0-.762-.128-1.024-.382a1.266 1.266 0 01-.393-.946c0-.384.135-.701.404-.952.27-.251.618-.377 1.046-.377.428 0 .77.126 1.03.377.257.25.39.568.398.952 0 .376-.133.691-.399.946zm9.43 9.103H11.82v-4.106c0-1.158-.428-1.738-1.284-1.738-.324 0-.597.09-.819.272-.221.18-.387.4-.498.658-.051.133-.077.34-.077.62v4.294H6.585c.022-4.634.022-7.194 0-7.681h2.557v1.084c.537-.84 1.3-1.261 2.291-1.261.885 0 1.598.291 2.136.874.539.583.808 1.443.808 2.579v4.405z" fill="#FFF" fill-rule="nonzero"/></svg>