<?xml version="1.0" encoding="UTF-8"?>
<svg width="14px" height="14px" viewBox="0 0 14 14" version="1.1" xmlns="http://www.w3.org/2000/svg" xmlns:xlink="http://www.w3.org/1999/xlink">
    <!-- Generator: Sketch 59 (86127) - https://sketch.com -->
    <title>assets/opendata</title>
    <desc>Created with Sketch.</desc>
    <g id="assets/opendata" stroke="none" stroke-width="1" fill="none" fill-rule="evenodd">
        <g id="opendata" fill="#333333" fill-rule="nonzero">
            <path d="M11.6484375,9.296875 C11.2766992,9.296875 10.9250312,9.3839375 10.6121914,9.53815625 L8.48739062,7 L10.6121914,4.46181641 C10.9250312,4.6160625 11.2766992,4.703125 11.6484375,4.703125 C12.9450781,4.703125 14,3.64823047 14,2.3515625 C14,1.05489453 12.9450781,0 11.6484375,0 C10.3517969,0 9.296875,1.05489453 9.296875,2.3515625 C9.296875,2.88132031 9.47310547,3.37060937 9.7698125,3.76419531 L7.51879297,6.453125 L4.63823828,6.453125 C4.39099609,5.41944922 3.45991406,4.6484375 2.3515625,4.6484375 C1.05492188,4.6484375 0,5.70333203 0,7 C0,8.29666797 1.05492188,9.3515625 2.3515625,9.3515625 C3.45991406,9.3515625 4.39102344,8.58055078 4.63823828,7.546875 L7.51879297,7.546875 L9.76978516,10.2358047 C9.47310547,10.6293906 9.296875,11.1186797 9.296875,11.6484375 C9.296875,12.9451055 10.3517969,14 11.6484375,14 C12.9450781,14 14,12.9451055 14,11.6484375 C14,10.3517695 12.9450781,9.296875 11.6484375,9.296875 Z M2.3515625,8.2578125 C1.65801562,8.2578125 1.09375,7.69354687 1.09375,7 C1.09375,6.30645312 1.65801562,5.7421875 2.3515625,5.7421875 C3.04510937,5.7421875 3.609375,6.30645312 3.609375,7 C3.609375,7.69354687 3.04510937,8.2578125 2.3515625,8.2578125 Z M11.6484375,1.09375 C12.3419844,1.09375 12.90625,1.65801562 12.90625,2.3515625 C12.90625,3.04510938 12.3419844,3.609375 11.6484375,3.609375 C10.9548906,3.609375 10.390625,3.04510938 10.390625,2.3515625 C10.390625,1.65801562 10.9548906,1.09375 11.6484375,1.09375 Z M11.6484375,12.90625 C10.9548906,12.90625 10.390625,12.3419844 10.390625,11.6484375 C10.390625,10.9548906 10.9548906,10.390625 11.6484375,10.390625 C12.3419844,10.390625 12.90625,10.9548906 12.90625,11.6484375 C12.90625,12.3419844 12.3419844,12.90625 11.6484375,12.90625 Z" id="Shape"></path>
        </g>
    </g>
</svg>