<?xml version="1.0" encoding="UTF-8"?>
<svg width="19px" height="15px" viewBox="0 0 19 15" version="1.1" xmlns="http://www.w3.org/2000/svg" xmlns:xlink="http://www.w3.org/1999/xlink">
    <!-- Generator: Sketch 59 (86127) - https://sketch.com -->
    <title>assets/opi2</title>
    <desc>Created with Sketch.</desc>
    <g id="assets/opi2" stroke="none" stroke-width="1" fill="none" fill-rule="evenodd">
        <path d="M7.1180454,0.17157518 C7.73527454,0.338129074 8.1439614,0.883977972 8.14955985,1.50960479 C8.1551583,2.05265446 8.15095947,2.59570413 8.15095947,3.1387538 C8.15235908,3.20173637 8.15235908,3.26331932 8.15235908,3.35289453 C8.42808275,3.26891777 8.6786134,3.20593521 8.91934676,3.11356078 C9.17687547,3.01418829 9.41760883,3.01138906 9.67513754,3.11076155 C9.9158709,3.20313598 10.1678012,3.26611855 10.439326,3.3500953 C10.4435248,3.26891777 10.4491233,3.21013404 10.4491233,3.15135032 C10.4505229,2.625096 10.4463241,2.09884167 10.4505229,1.57258735 C10.4561214,0.846188433 10.8452136,0.388515126 11.3798656,0.217762394 C12.1202607,-0.0187721284 12.708098,0.213563556 13.0887926,0.836391145 C13.1097868,0.869981846 13.1293813,0.903572548 13.1489759,0.938562862 C13.3085317,1.22548344 13.4778849,1.48721098 13.8011954,1.63976875 C14.0853167,1.77273195 14.2854613,2.02606182 14.4548144,2.29198821 C15.2343986,3.51944842 16.0125832,4.74690863 16.7907678,5.97436885 C17.1742616,6.58040109 17.5563559,7.18643332 17.9412493,7.79106595 C19.5242111,10.2809767 18.0154288,13.5812631 15.0986362,14.0039461 C12.6563123,14.3580481 10.457521,12.4643723 10.4477237,9.99545573 C10.4435248,9.0899064 10.4435248,8.18435708 10.4505229,7.27880775 C10.4519225,7.13184843 10.4155326,7.08426161 10.2629748,7.08566122 C9.61775343,7.0940589 8.97253204,7.09265928 8.32731065,7.08566122 C8.18594978,7.08426161 8.14536102,7.12904921 8.14676063,7.26901047 C8.15235908,8.16336289 8.15095947,9.05771532 8.14955985,9.95066813 C8.14676063,11.0605609 7.77726291,12.0360908 6.98788143,12.8142754 C5.81500611,13.9689558 4.40419665,14.3468512 2.83663058,13.8359926 C1.24387149,13.3167363 0.311729525,12.169054 0.0597992642,10.5091135 C-0.110953468,9.3908231 0.219355096,8.39010013 0.86177726,7.46915506 C1.26206645,6.89531391 1.61196959,6.28648245 1.98706576,5.69444634 C2.70646661,4.55656133 3.42726708,3.42007593 4.14946716,2.28359053 C4.36640711,1.94068545 4.66172536,1.68455636 5.02002617,1.49560866 C5.09980409,1.45362028 5.17398355,1.38224004 5.22436961,1.30666096 C5.34753551,1.12471133 5.44970723,0.927365961 5.57287313,0.744016716 C5.94097124,0.200967043 6.5274089,0.0120193479 7.1180454,0.17157518 Z M4.18585709,6.51042046 C2.18860997,6.46283363 0.660233052,8.02620086 0.6210439,9.90168169 C0.580455136,11.8527416 2.1144305,13.4175084 4.07668731,13.4496995 C5.93397317,13.480491 7.52533265,11.919923 7.55472452,10.0388437 C7.58411638,8.1423687 6.06133792,6.55520806 4.18585709,6.51042046 Z M14.2518706,6.51601891 C12.6339185,6.62098985 11.0453582,8.00940551 11.0495488,10.0332453 C11.0523563,11.876535 12.6241212,13.4399022 14.5038009,13.4497457 C16.4002759,13.4594968 17.9650427,11.9073265 17.9874365,10.0094519 C18.0084307,8.18155785 16.4814534,6.37185882 14.2518706,6.51601891 Z M4.16346329,8.23054429 L4.16517426,8.23185491 L4.30993783,8.24233109 C5.13263019,8.33960176 5.82021578,9.0792538 5.83739991,9.92127626 C5.84159874,10.1242201 5.72683052,10.265581 5.55047933,10.2767779 C5.38392544,10.2865751 5.24116496,10.1690077 5.23836573,9.96886309 C5.23136767,9.37122853 4.74570211,8.84637382 4.08088615,8.82398002 C3.89613729,8.81698196 3.78416828,8.68401876 3.79256596,8.51466564 L3.79256596,8.23054429 L4.16346329,8.23054429 Z M14.5905769,8.23054429 L14.5921743,8.23185491 L14.7529914,8.24831304 C15.6469906,8.37641071 16.2236137,9.0954271 16.2659131,9.9030813 C16.2715115,10.1214209 16.1637414,10.2641813 15.9817917,10.2753782 C15.8082398,10.2865751 15.6934715,10.1676081 15.6696781,9.95066813 C15.5968983,9.28585216 15.2064064,8.89536026 14.5443896,8.82677924 C14.3288493,8.80438544 14.2098822,8.68961721 14.2196795,8.51466564 L14.2201743,8.50785491 L14.2210791,8.23054429 L14.5905769,8.23054429 Z M4.68131993,2.57610956 C4.25303849,3.22133095 3.84715085,3.88194807 3.43286553,4.53556714 C3.07176549,5.10520945 2.71206506,5.67345215 2.35236464,6.24029523 C2.35516386,6.25709059 2.35796309,6.27248632 2.36076231,6.28928167 C3.29150466,5.87779558 4.24744004,5.79241922 5.22017077,6.07374134 C6.19710033,6.35646308 6.95988918,6.94430035 7.53792917,7.78686711 C7.55472452,7.46355661 7.55612413,7.15424224 7.55472452,6.84492786 C7.55192529,5.70284401 6.73735078,4.84068268 5.602265,4.77490089 C5.37832699,4.76230437 5.26355876,4.67832762 5.24396418,4.51317334 C5.22157038,4.33542254 5.3125452,4.22485315 5.53228437,4.15767175 C6.1593108,3.96592483 6.78493761,3.76997907 7.41336365,3.58243099 C7.5309311,3.54744067 7.5645218,3.48585772 7.55472452,3.37388871 C7.52113382,2.96940068 7.37837333,2.61529871 7.08585431,2.33117736 C6.3720519,1.63556992 5.23416689,1.74613931 4.68131993,2.57610956 Z M12.198639,1.93368739 C11.559016,2.10863896 11.1027424,2.68248011 11.0551555,3.3612922 C11.0467579,3.49005656 11.0789489,3.55583835 11.2119121,3.58942905 C11.4736397,3.65801006 11.7311684,3.74618565 11.9900967,3.82596357 C12.3679921,3.94213141 12.7472871,4.05689964 13.1237829,4.17586671 C13.293136,4.22905199 13.3813116,4.35501712 13.3659159,4.50057682 C13.3491205,4.65733343 13.2343523,4.75670592 13.0496034,4.77350127 L12.9474317,4.77909972 L12.9474317,4.77909972 C11.9761006,4.83508423 11.1671245,5.59227462 11.0719509,6.56220612 C11.0369606,6.92610539 11.0537559,7.2956031 11.0481575,7.66370121 C11.0481575,7.70428997 11.0579548,7.74487874 11.0621536,7.78406789 C12.422577,6.00516033 14.1399016,5.49850058 16.2645135,6.27388594 C16.2351216,6.22210027 16.2169266,6.18710996 16.1973321,6.15491887 C15.9523999,5.7686258 15.7074677,5.38093312 15.4625355,4.99464006 C14.9502773,4.18846322 14.4464168,3.37668794 13.9229617,2.57610956 C13.5450663,1.99806957 12.8550573,1.75453698 12.198639,1.93368739 Z M9.17687547,3.66920696 C8.64642231,3.82736318 8.11736877,3.99251747 7.58691561,4.15487252 C7.29719581,4.24444773 7.00887562,4.33402293 6.71495698,4.42499775 C6.72895311,4.44879116 6.73175233,4.45578922 6.73595117,4.45858845 C6.75414613,4.47118496 6.7723411,4.48378147 6.79193567,4.49497837 C7.52253343,4.91486214 7.96900983,5.53768973 8.11316993,6.36905959 C8.13416412,6.48802666 8.20134552,6.49362511 8.29232034,6.49362511 C8.95993553,6.4922255 9.62755072,6.49082588 10.2951659,6.49502472 C10.4169322,6.49642433 10.4715171,6.46563286 10.4939109,6.33266966 C10.5834861,5.80501573 10.8116229,5.34034436 11.1965164,4.96804742 C11.4036591,4.77070205 11.6415932,4.60834699 11.8683304,4.42639736 L11.8053479,4.39980472 L11.8053479,4.39980472 C11.0005706,4.1520733 10.1957934,3.90294226 9.38961658,3.65940968 C9.3252344,3.6398151 9.24405688,3.64961239 9.17687547,3.66920696 Z M9.30983867,4.69932181 C9.5029852,4.70352065 9.65274374,4.85607841 9.65414336,5.04922495 C9.65554297,5.24517071 9.50858365,5.39912809 9.31683673,5.40612615 C9.11109368,5.41312421 8.95153785,5.26056644 8.95013824,5.05622301 C8.94733901,4.85187958 9.10689484,4.69512297 9.30983867,4.69932181 Z M11.6401936,0.751014779 C11.1783214,0.89377526 10.9697792,1.24927685 11.0761497,1.91409282 C11.5100296,1.50260672 12.0194886,1.29126523 12.6185228,1.26887143 C12.4743627,0.851786883 12.043282,0.626449261 11.6401936,0.751014779 Z M5.98715845,1.27027104 C6.58619263,1.29126523 7.09425199,1.50400634 7.52673227,1.9126932 C7.65969546,1.35704702 7.42036171,0.878379522 6.96128879,0.748215554 C6.55540115,0.633447324 6.12711971,0.853186496 5.98715845,1.27027104 Z" id="Combined-Shape" fill="#333333" fill-rule="nonzero"></path>
    </g>
</svg>