<svg width="26" height="17" xmlns="http://www.w3.org/2000/svg" xmlns:xlink="http://www.w3.org/1999/xlink"><defs><path d="M0 .5v16a.5.5 0 00.5.5h25a.5.5 0 00.5-.5V.5a.5.5 0 00-.5-.5H.5a.5.5 0 00-.5.5z" id="a"/><path d="M13 8.5h13V17L13 8.5zm0 0V17H0l13-8.5zm0 0H0V0l13 8.5zm0 0V0h13L13 8.5z" id="c"/></defs><g fill="none" fill-rule="evenodd"><mask id="b" fill="#fff"><use xlink:href="#a"/></mask><g mask="url(#b)"><path fill="#41479B" fill-rule="nonzero" d="M0 0v17h26V0z"/><path fill="#F5F5F5" fill-rule="nonzero" d="M25.146-1.306l1.708 2.612L15.849 8.5l11.005 7.194-1.708 2.612L13 10.363.854 18.306l-1.708-2.612L10.15 8.5-.854 1.306.854-1.306 13 6.637z"/><mask id="d" fill="#fff"><use xlink:href="#c"/></mask><path fill="#FF4B55" fill-rule="nonzero" mask="url(#d)" d="M25.43-.87L26.57.87 14.9 8.5l11.67 7.63-1.14 1.74L13 9.742.57 17.87l-1.14-1.74L11.1 8.5-.57.87.57-.87 13 7.257z"/><path fill="#F5F5F5" fill-rule="nonzero" d="M15.6 0v5.9H26v5.2H15.6V17h-5.2v-5.9H0V5.9h10.4V0z"/><path fill="#FF4B55" fill-rule="nonzero" d="M14.56 0v6.939L26 6.94v3.12H14.56V17h-3.12v-6.94H0V6.94l11.44-.001V0z"/></g></g></svg>