<svg width="17" height="14" xmlns="http://www.w3.org/2000/svg"><path d="M15.261 3.485c.007.152.01.306.01.46C15.272 8.614 11.765 14 5.348 14A9.772 9.772 0 010 12.413a6.973 6.973 0 005.164-1.463C3.638 10.92 2.35 9.9 1.906 8.494a3.47 3.47 0 001.575-.06C1.885 8.112.683 6.683.683 4.97v-.045c.47.264 1.009.424 1.58.442A3.545 3.545 0 01.712 2.424c0-.648.171-1.255.472-1.778 1.72 2.14 4.29 3.546 7.189 3.695-.06-.26-.09-.528-.09-.806C8.283 1.583 9.844 0 11.77 0c1.004 0 1.91.43 2.547 1.116a6.907 6.907 0 002.215-.858 3.543 3.543 0 01-1.535 1.956A6.863 6.863 0 0017 1.658a7.07 7.07 0 01-1.739 1.827z" fill="#FFF" fill-rule="nonzero"/></svg>