<svg width="151" height="194" xmlns="http://www.w3.org/2000/svg"><path d="M47.5 21.8c7.2-7 17.3-10.9 28.5-10.9 25.1 0 41.9 17.5 41.9 43.5 0 11.5-3.6 22.2-10.1 29.9-7.4 8.8-18.4 13.4-31.8 13.4-13 0-23.4-4.6-30.8-13.5-6.4-7.8-9.9-18.2-9.9-29.4 0-13.9 4.2-25.2 12.2-33M76 107.6c16.4 0 30.1-5.9 39.5-16.9 8-9.5 12.5-22.5 12.5-36.4C128 22.8 106.6.8 76.1.8 62.2.8 49.6 5.7 40.6 14.6c-9.9 9.7-15.1 23.5-15.1 40 0 13.5 4.3 26.2 12.2 35.8 9.1 11.3 22.4 17.2 38.3 17.2m30.7 10H43.6C19.7 117.6.2 137.1.2 161v2h10v-2c0-18.4 15-33.4 33.4-33.4h63.1c18.4 0 33.4 15 33.4 33.4v22H.1v10h150v-32c.1-24-19.4-43.4-43.4-43.4" fill="#333" fill-rule="nonzero"/></svg>